<?xml version="1.0" standalone="no"?>
<!DOCTYPE svg PUBLIC "-//W3C//DTD SVG 20010904//EN"
 "http://www.w3.org/TR/2001/REC-SVG-20010904/DTD/svg10.dtd">
<svg version="1.0" xmlns="http://www.w3.org/2000/svg"
 width="210.000000pt" height="180.000000pt" viewBox="0 0 210.000000 180.000000"
 preserveAspectRatio="xMidYMid meet">
<metadata>
Created by potrace 1.16, written by Peter Selinger 2001-2019
</metadata>
<g transform="translate(0.000000,180.000000) scale(0.100000,-0.100000)"
fill="#000000" stroke="none">
<path d="M986 1654 c-27 -60 -80 -165 -117 -234 -82 -150 -109 -224 -109 -300
0 -103 45 -166 153 -215 111 -51 232 -32 334 51 85 70 103 152 59 277 -26 73
-88 183 -143 256 -44 57 -92 151 -112 220 l-17 55 -48 -110z m-75 -280 c-5
-22 -13 -86 -17 -144 -6 -102 -15 -137 -38 -152 -19 -13 -36 14 -36 56 0 53
22 131 62 219 34 73 45 81 29 21z"/>
<path d="M1919 1453 c-17 -75 -13 -261 7 -338 29 -111 2 -187 -113 -320 -75
-86 -109 -111 -130 -93 -7 6 -13 15 -13 20 0 5 40 51 89 102 48 50 98 110 110
133 24 49 27 112 7 152 -30 56 -39 55 -75 -15 -56 -107 -106 -155 -234 -220
-153 -77 -236 -134 -289 -196 -91 -109 -143 -199 -178 -316 -22 -74 -33 -82
-44 -36 -15 57 -83 178 -143 253 -101 126 -181 181 -378 259 -110 44 -170 92
-231 185 l-52 78 -21 -27 c-64 -82 -20 -188 130 -309 63 -51 92 -95 75 -113
-28 -28 -200 155 -257 274 -31 66 -31 70 -23 148 15 146 11 285 -10 340 l-19
50 -18 -85 c-10 -46 -29 -133 -43 -194 -14 -60 -26 -135 -26 -166 0 -146 107
-339 245 -444 68 -51 163 -94 335 -150 164 -53 307 -119 362 -167 32 -28 40
-43 53 -103 8 -38 15 -89 15 -112 0 -24 5 -43 10 -43 6 0 10 20 10 45 0 78 35
153 104 220 68 67 155 117 336 190 125 51 206 90 272 131 108 68 242 250 273
371 20 79 10 149 -50 333 -24 74 -49 154 -55 178 -6 23 -13 42 -15 42 -2 0 -9
-26 -16 -57z"/>
<path d="M1681 1445 c-26 -95 -6 -268 43 -354 l14 -25 26 52 27 53 -35 87
c-19 48 -41 119 -49 157 l-14 70 -12 -40z"/>
<path d="M367 1406 c-4 -10 -7 -32 -7 -49 0 -34 -28 -138 -52 -197 -14 -33
-13 -37 16 -87 16 -28 33 -50 36 -48 4 2 17 39 30 81 19 64 22 93 18 163 -6
93 -29 170 -41 137z"/>
<path d="M1590 1255 c-19 -49 -7 -191 21 -253 l25 -53 32 34 33 34 -27 69
c-14 38 -37 98 -50 134 l-23 64 -11 -29z"/>
<path d="M459 1182 c-9 -31 -27 -92 -40 -136 l-24 -78 35 -29 c19 -16 37 -26
40 -21 4 4 15 35 25 69 20 70 17 181 -6 226 l-14 27 -16 -58z"/>
</g>
</svg>
